<svg xmlns="http://www.w3.org/2000/svg" width="460" height="68">
  <svg x="0" y="0" width="86" height="68" viewBox="0 0 1501 1185">
    <g fill="#0078af" fill-rule="evenodd">
      <path d="M921.6 999.9H1126v71.2H921.6zm-307 71.1h-77.7v-93.4h-50.4v-85.2h-48.1V1071h-69.3V693.9l-25.2-26.7v-95.5l270.7 174.4zM438.4 831.4h98.5V781h-98.5z"/>
      <path d="M662.4 559.2h206.2V444.7c-25.9-7.4-45.2-31.1-45.2-59.6 0-34.1 27.4-61.9 61.5-61.9s61.5 27.8 61.5 61.9c0 28.1-18.5 51.5-44.1 59.2v153.8H628.7V444.3c-25.2-7.7-44.1-31.1-44.1-59.2 0-34.1 27.8-61.9 61.9-61.9 33.6 0 61.4 27.8 61.4 61.9 0 28.5-19.2 52.2-45.5 59.6zm3.7 278.6v233.3h-86.3V781.5H405V652.6h-61.1V551.4L196.2 408.5V231h-64.8V1h78.9v69.3h44v69.6h38.5V70.3h51.1V1h76.7v230h-63.7v116.3l147.4 164.5v142.6h128.1l133.3 148.5v146zm99.6 110.7V802.6L899 654.4h127.7V511.8l147.8-164.4V230.7h-64.1V1h77v69.3h51.1v69.6h38.2V70.3h44.4V1h78.9v229.7h-64.8v177.4l-147.8 143.4v101.1H1126v128.5H951.6v290h-86.3V837.8zm-716.5 65.2H.7V836.6l128.5-143h213.6v47.1h-184L49.2 862.5zm30.4-111.1 108.8-121.1h154.4v50.4H223.6l-95.5 106.3v133.3H79.6zm263.2-24.4v48.5h-84l-57 63.3v136.3H161V957.4l71.1-79.2zm0 135.2h-30l-19.6 22.2v149.3h-44.4V1000l30.7-33.7h63.3zm1109.4-151.1-109.6-122.2h-184.1v-46.7h213.7l128.5 143v177h-48.5zm-30.4 208.2h-48.5v-133l-95.5-106.7h-119.3v-50h154.4L1421.8 902zm-152.6-193 71.1 79.3v168.9h-40.7V989.3l-57-63.3h-84.1v-48.5zm-110.3 88.1h63.3l30.4 34.1v184.9h-44.1v-149.7l-20-21.8h-29.6z"/>
    </g>
  </svg>
  <text
    x="100"
    y="34"
    font-family="Arial, Helvetica, sans-serif"
    font-size="36"
    font-weight="600"
    fill="#0078af"
    dominant-baseline="middle"
  >Ameba-AIoT Skills</text>
</svg>
